<svg xmlns="http://www.w3.org/2000/svg" width="2000" height="1400"><path d="M0 1400h80v-.034q0-12-12-12H12q-12 0-12 12ZM100 1400h80v-35.547q0-12-12-12h-56q-12 0-12 12ZM200 1400h80v-101.34q0-12-12-12h-56q-12 0-12 12ZM300 1400h80v-144.755q0-12-12-12h-56q-12 0-12 12ZM400 1400h80v-260.836q0-12-12-12h-56q-12 0-12 12ZM500 1400h80v-175.72q0-12-12-12h-56q-12 0-12 12ZM600 1400h80v-334.979q0-12-12-12h-56q-12 0-12 12ZM700 1400h80V924.157q0-12-12-12h-56q-12 0-12 12ZM800 1400h80V974.138q0-12-12-12h-56q-12 0-12 12ZM900 1400h80V820.078q0-12-12-12h-56q-12 0-12 12ZM1000 1400h80V780.902q0-12-12-12h-56q-12 0-12 12ZM1100 1400h80V896.859q0-12-12-12h-56q-12 0-12 12ZM1200 1400h80V815.162q0-12-12-12h-56q-12 0-12 12ZM1300 1400h80V509.91q0-12-12-12h-56q-12 0-12 12ZM1400 1400h80V843.97q0-12-12-12h-56q-12 0-12 12ZM1500 1400h80V809.25q0-12-12-12h-56q-12 0-12 12ZM1600 1400h80V250.184q0-12-12-12h-56q-12 0-12 12ZM1700 1400h80V274.334q0-12-12-12h-56q-12 0-12 12ZM1800 1400h80V146.634q0-12-12-12h-56q-12 0-12 12ZM1900 1400h80V677.003q0-12-12-12h-56q-12 0-12 12Z" fill="#3C6E71"/></svg>